<svg width="30" height="30" viewBox="0 0 30 30" fill="none" xmlns="http://www.w3.org/2000/svg">
<path fill-rule="evenodd" clip-rule="evenodd" d="M9.25975 1.14181C11.0796 0.387987 13.0302 0 15 0C16.9698 0 18.9204 0.387987 20.7403 1.14181C22.5601 1.89563 24.2137 3.00052 25.6066 4.3934C26.9995 5.78628 28.1044 7.43986 28.8582 9.25975C29.612 11.0796 30 13.0302 30 15C30 16.9698 29.612 18.9204 28.8582 20.7403C28.1044 22.5601 26.9995 24.2137 25.6066 25.6066C24.2137 26.9995 22.5601 28.1044 20.7403 28.8582C18.9204 29.612 16.9698 30 15 30C13.0302 30 11.0796 29.612 9.25975 28.8582C7.43986 28.1044 5.78628 26.9995 4.3934 25.6066C3.00052 24.2137 1.89563 22.5601 1.14181 20.7403C0.387986 18.9204 0 16.9698 0 15C0 13.0302 0.387986 11.0796 1.14181 9.25975C1.89563 7.43987 3.00052 5.78628 4.3934 4.3934C5.78628 3.00052 7.43987 1.89563 9.25975 1.14181ZM15 2.30769C13.3332 2.30769 11.6828 2.63599 10.1429 3.27384C8.60296 3.91169 7.20377 4.84659 6.02518 6.02518C4.84659 7.20377 3.91168 8.60296 3.27384 10.1429C2.63599 11.6828 2.30769 13.3332 2.30769 15C2.30769 16.6668 2.63599 18.3172 3.27384 19.8571C3.91168 21.397 4.84659 22.7962 6.02518 23.9748C7.20377 25.1534 8.60296 26.0883 10.1429 26.7262C11.6828 27.364 13.3332 27.6923 15 27.6923C16.6668 27.6923 18.3172 27.364 19.8571 26.7262C21.397 26.0883 22.7962 25.1534 23.9748 23.9748C25.1534 22.7962 26.0883 21.397 26.7262 19.8571C27.364 18.3172 27.6923 16.6668 27.6923 15C27.6923 13.3332 27.364 11.6828 26.7262 10.1429C26.0883 8.60296 25.1534 7.20377 23.9748 6.02518C22.7962 4.84659 21.397 3.91169 19.8571 3.27384C18.3172 2.63599 16.6668 2.30769 15 2.30769Z" fill="white"/>
<path fill-rule="evenodd" clip-rule="evenodd" d="M10.9205 7.84361C12.0025 6.76167 13.4699 6.15384 15 6.15384C16.5301 6.15384 17.9975 6.76167 19.0795 7.84361C20.1614 8.92555 20.7692 10.393 20.7692 11.9231C20.7692 13.4532 20.1614 14.9206 19.0795 16.0025C17.9975 17.0845 16.5301 17.6923 15 17.6923C13.4699 17.6923 12.0025 17.0845 10.9205 16.0025C9.8386 14.9206 9.23077 13.4532 9.23077 11.9231C9.23077 10.393 9.8386 8.92555 10.9205 7.84361ZM15 8.46153C14.0819 8.46153 13.2015 8.82623 12.5523 9.47539C11.9032 10.1246 11.5385 11.005 11.5385 11.9231C11.5385 12.8411 11.9032 13.7216 12.5523 14.3707C13.2015 15.0199 14.0819 15.3846 15 15.3846C15.9181 15.3846 16.7985 15.0199 17.4477 14.3707C18.0968 13.7216 18.4615 12.8411 18.4615 11.9231C18.4615 11.005 18.0968 10.1246 17.4477 9.47539C16.7985 8.82623 15.9181 8.46153 15 8.46153Z" fill="white"/>
<path d="M6.02768 25.5369C6.40846 24.2696 7.18763 23.1587 8.2496 22.3692C9.31156 21.5796 10.5998 21.1534 11.9231 21.1538H18.0769C19.4019 21.1534 20.6917 21.5806 21.7544 22.372C22.8172 23.1633 23.5961 24.2766 23.9754 25.5461" stroke="white" stroke-width="2.75" stroke-linecap="round" stroke-linejoin="round"/>
</svg>
