<svg width="29" height="26" viewBox="0 0 29 26" fill="none" xmlns="http://www.w3.org/2000/svg">
<path fill-rule="evenodd" clip-rule="evenodd" d="M15.0525 2.23731C12.0538 2.11572 9.12168 2.96786 6.80194 4.61359C4.48456 6.25765 2.9482 8.57055 2.4356 11.103C1.9237 13.632 2.45832 16.2494 3.96404 18.4763C4.15784 18.763 4.20731 19.1234 4.0979 19.4517L2.7839 23.3937L7.8558 22.3145C8.09809 22.263 8.35064 22.2937 8.57348 22.4019C11.1914 23.6728 14.2516 24.0595 17.178 23.4797C20.1042 22.9 22.666 21.4006 24.4034 19.2928C26.1374 17.189 26.9369 14.6206 26.6864 12.0631C26.4357 9.50381 25.1457 7.08389 23.0136 5.26535C20.8787 3.44437 18.0512 2.35889 15.0525 2.23731ZM5.51399 2.79816C8.25357 0.854582 11.675 -0.127354 15.1427 0.013248C18.6105 0.153852 21.9223 1.40898 24.4581 3.57182C26.9967 5.73711 28.5909 8.67313 28.9017 11.8461C29.2127 15.0208 28.2127 18.1709 26.121 20.7085C24.0326 23.2421 21.0025 24.9912 17.6106 25.6632C14.3479 26.3096 10.9348 25.9236 7.95314 24.5695L1.34458 25.9756C0.95415 26.0587 0.549136 25.9263 0.283139 25.6287C0.017143 25.331 -0.0690946 24.9138 0.0571328 24.5351L1.81755 19.2538C0.218683 16.6498 -0.344097 13.616 0.253958 10.6614C0.887623 7.53082 2.77207 4.74341 5.51399 2.79816Z" fill="white"/>
</svg>
