<svg width="26" height="22" viewBox="0 0 26 22" fill="none" xmlns="http://www.w3.org/2000/svg">
<path d="M17.0257 1.00188H9.55465C7.72013 0.963206 5.92283 1.52247 4.43416 2.59523C2.94548 3.66798 1.84626 5.19598 1.30248 6.94848C0.969396 8.1349 0.910502 9.38154 1.13025 10.5941C1.35 11.8066 1.84264 12.9533 2.5709 13.9474C3.29916 14.9414 4.24396 15.7569 5.33383 16.332C6.42369 16.907 7.63008 17.2267 8.86172 17.2668H9.18929V20.3787C9.19072 20.536 9.23959 20.6891 9.32948 20.8181C9.41938 20.9472 9.54613 21.0461 9.69315 21.1019C9.84016 21.1577 10.0006 21.1678 10.1535 21.131C10.3063 21.0941 10.4445 21.012 10.55 20.8953L13.2965 17.7708C13.4259 17.6152 13.5876 17.4896 13.7703 17.4026C13.953 17.3156 14.1524 17.2693 14.3548 17.2668H16.4462C18.2802 17.3034 20.0765 16.7434 21.5648 15.6709C23.0531 14.5985 24.1527 13.0716 24.6983 11.3202C25.0335 10.1248 25.0902 8.86843 24.8643 7.64763C24.6383 6.42682 24.1356 5.27402 23.3948 4.27773C22.6539 3.28143 21.6947 2.46814 20.5906 1.90028C19.4865 1.33241 18.267 1.02508 17.0257 1.00188Z" stroke="white" stroke-width="1.5" stroke-linecap="round" stroke-linejoin="round"/>
<path d="M8.31998 7.17526H17.6178" stroke="white" stroke-width="1.5" stroke-linecap="round" stroke-linejoin="round"/>
<path d="M8.31998 11.4589H13.3469" stroke="white" stroke-width="1.5" stroke-linecap="round" stroke-linejoin="round"/>
</svg>
