<svg width="160" height="80" viewBox="0 0 160 80" fill="none" xmlns="http://www.w3.org/2000/svg">
<path d="M12.4239 46.7454V26.4859H12.1518C11.2697 26.4859 10.5565 25.7727 10.5565 24.8906V22.4321C10.5565 21.55 11.2697 20.8368 12.1518 20.8368H12.4239C12.4239 7.84029 19.6588 4.2463 26.2931 4.27446V9.8578C19.7526 9.8578 16.4777 13.0389 16.4777 20.8556L26.4245 20.8368V26.4859L16.4026 26.5046V46.7642L12.4239 46.7454Z" fill="#4A6DC7"/>
<path d="M65.1326 44.437L57.2126 20.9025H64.1566L68.9236 38.5252C68.9048 33.3735 71.842 26.8705 74.7791 21.0808L81.6574 21.4373C77.5098 28.3532 73.6249 35.4849 73.6343 42.8511C73.6343 43.7238 72.9211 44.437 72.0484 44.437H65.1419H65.1326Z" fill="#4A6DC7"/>
<path d="M37.7318 44.437C33.8657 44.437 31.7638 42.8606 31.4259 39.7452C31.5573 36.5922 30.4782 31.1215 34.3161 29.6482C36.0052 28.6723 45.4265 29.3479 47.6411 29.1603C47.4534 26.6829 47.3033 26.5328 44.5257 26.5328H31.7638V20.9025C57.419 20.4427 54.2754 19.5513 54.2754 42.8418C54.2754 43.7239 53.5623 44.437 52.6802 44.437H37.7318ZM47.9695 37.3992V34.2275C46.4681 34.6591 36.9624 32.9794 37.5723 35.7664C37.6474 37.5493 36.9624 38.9569 39.937 38.8068C39.937 38.8068 44.2629 38.8068 46.562 38.8068C47.3408 38.8068 47.9602 38.1781 47.9602 37.3992H47.9695Z" fill="#4A6DC7"/>
<path d="M106.102 35.3254H90.8347C90.7878 37.7745 90.6471 38.9757 94.4756 38.8161H107.951V42.7292C107.951 43.63 107.219 44.3432 106.327 44.3244C98.8954 44.118 83.6937 47.3366 84.6133 36.8643C84.801 31.6751 82.9242 20.2832 90.7315 20.9119C104.732 21.0245 108.429 18.5847 107.707 33.7958C107.669 34.6497 106.965 35.3254 106.112 35.3254H106.102ZM90.8441 30.2581H100.904C100.941 28.2782 101.129 26.3357 98.4262 26.5422H93.5466C90.6001 26.3076 90.816 28.0436 90.8441 30.2581Z" fill="#4A6DC7"/>
<path d="M153.941 51.2779C146.049 51.2779 134.413 43.48 133.878 43.114C117.569 33.9461 104.357 41.1716 104.225 41.2467L103.803 40.5054C103.934 40.4303 117.55 32.9608 134.319 42.3915C134.488 42.5041 148.676 52.0192 155.996 50.1988L156.202 51.0246C155.498 51.2029 154.738 51.2779 153.941 51.2779Z" fill="#4A6DC7"/>
<path d="M122.477 77.3553C122.402 77.2146 114.932 63.2796 124.363 46.1261C124.476 45.9478 133.991 31.4217 132.17 23.9241L133.005 23.7177C134.91 31.5813 125.498 45.9572 125.095 46.5671C115.918 63.289 123.152 76.8017 123.228 76.9424L122.477 77.3553Z" fill="#4A6DC7"/>
<path d="M138.88 71.7625C138.805 71.6218 131.335 57.6869 140.766 40.5333C140.878 40.355 150.394 25.829 148.573 18.3313L149.408 18.1249C151.313 25.9885 141.901 40.3644 141.498 40.9744C132.33 57.6775 139.555 71.2089 139.63 71.3497L138.88 71.7625Z" fill="#4A6DC7"/>
<path d="M146.856 65.4755C138.016 65.4755 124.954 57.6869 124.354 57.321C105.999 48.1342 91.1163 55.3785 90.9661 55.4536L90.5626 54.6466C90.7128 54.5715 105.98 47.1208 124.785 56.5327C124.973 56.6453 140.935 66.1699 149.192 64.3494L149.39 65.2315C148.601 65.4098 147.757 65.4848 146.865 65.4848L146.856 65.4755Z" fill="#4A6DC7"/>
<path d="M157.901 29.1038C145.589 -5.64432 94.4005 -10.4676 74.7696 21.0901C74.704 21.2683 74.6383 21.4373 74.5444 21.6062C75.4077 21.5874 81.6386 21.4466 81.6386 21.4466C96.5588 -4.38689 145.429 2.75416 153.847 30.2299C167.294 68.5907 114.97 91.0649 87.1938 69.4916C86.8653 69.7731 86.5087 70.0077 86.124 70.2047C114.932 94.3961 171.591 69.8857 157.901 29.1038Z" fill="#4A6DC7"/>
<path d="M79.3396 62.313C78.0821 66.592 75.5391 71.2276 70.9505 72.4944L70.7909 71.6123L87.175 69.4259L87.3533 71.1056L70.8848 72.5038C70.3499 72.5507 70.2092 71.7531 70.7253 71.6217C73.8876 70.7865 76.0083 67.9808 77.3314 65.1281C77.7819 64.1522 78.1854 63.12 78.4575 62.0972L79.3302 62.313H79.3396Z" fill="#4A6DC7"/>
<path d="M9.83308 53.4342C14.0613 52.5131 17.0016 49.5291 16.4004 46.7694C15.7992 44.0097 11.8841 42.5192 7.65588 43.4403C3.42766 44.3614 0.487383 47.3454 1.0886 50.1051C1.68982 52.8649 5.60485 54.3553 9.83308 53.4342Z" fill="#4A6DC7"/>
</svg>
