<svg width="171" height="114" viewBox="0 0 171 114" fill="none" xmlns="http://www.w3.org/2000/svg">
<path d="M13.2398 77.82V56.23H12.9498C12.0098 56.23 11.2498 55.47 11.2498 54.53V51.91C11.2498 50.97 12.0098 50.21 12.9498 50.21H13.2398C13.2398 36.36 20.9498 32.53 28.0198 32.56V38.51C21.0498 38.51 17.5598 41.9 17.5598 50.23L28.1598 50.21V56.23L17.4798 56.25V77.84L13.2398 77.82Z" fill="white"/>
<path d="M69.4097 75.36L60.9697 50.28H68.3697L73.4497 69.06C73.4297 63.57 76.5597 56.64 79.6897 50.47L87.0197 50.85C82.5997 58.22 78.4597 65.82 78.4697 73.67C78.4697 74.6 77.7097 75.36 76.7797 75.36H69.4197H69.4097Z" fill="white"/>
<path d="M40.2097 75.36C36.0897 75.36 33.8497 73.68 33.4897 70.36C33.6297 67 32.4797 61.17 36.5697 59.6C38.3697 58.56 48.4097 59.28 50.7697 59.08C50.5697 56.44 50.4097 56.28 47.4497 56.28H33.8497V50.28C61.1897 49.79 57.8397 48.84 57.8397 73.66C57.8397 74.6 57.0797 75.36 56.1397 75.36H40.2097ZM51.1197 67.86V64.48C49.5197 64.94 39.3897 63.15 40.0397 66.12C40.1197 68.02 39.3897 69.52 42.5597 69.36C42.5597 69.36 47.1697 69.36 49.6197 69.36C50.4497 69.36 51.1097 68.69 51.1097 67.86H51.1197Z" fill="white"/>
<path d="M113.07 65.6501H96.7997C96.7497 68.2601 96.5997 69.5401 100.68 69.3701H115.04V73.5401C115.04 74.5001 114.26 75.2601 113.31 75.2401C105.39 75.0201 89.1897 78.4501 90.1697 67.2901C90.3697 61.7601 88.3697 49.6201 96.6897 50.2901C111.61 50.4101 115.55 47.8101 114.78 64.0201C114.74 64.9301 113.99 65.6501 113.08 65.6501H113.07ZM96.8097 60.2501H107.53C107.57 58.1401 107.77 56.0701 104.89 56.2901H99.6897C96.5497 56.0401 96.7797 57.8901 96.8097 60.2501Z" fill="white"/>
<path d="M164.05 82.65C155.64 82.65 143.24 74.34 142.67 73.95C125.29 64.18 111.21 71.88 111.07 71.96L110.62 71.17C110.76 71.09 125.27 63.13 143.14 73.18C143.32 73.3 158.44 83.44 166.24 81.5L166.46 82.38C165.71 82.57 164.9 82.65 164.05 82.65Z" fill="white"/>
<path d="M130.52 110.44C130.44 110.29 122.48 95.44 132.53 77.16C132.65 76.97 142.79 61.49 140.85 53.5L141.74 53.28C143.77 61.66 133.74 76.98 133.31 77.63C123.53 95.45 131.24 109.85 131.32 110L130.52 110.44Z" fill="white"/>
<path d="M148 104.48C147.92 104.33 139.96 89.4801 150.01 71.2001C150.13 71.0101 160.27 55.5301 158.33 47.5401L159.22 47.3201C161.25 55.7001 151.22 71.0201 150.79 71.6701C141.02 89.4701 148.72 103.89 148.8 104.04L148 104.48Z" fill="white"/>
<path d="M156.5 97.78C147.08 97.78 133.16 89.48 132.52 89.09C112.96 79.3 97.0998 87.02 96.9398 87.1L96.5098 86.24C96.6698 86.16 112.94 78.22 132.98 88.25C133.18 88.37 150.19 98.52 158.99 96.58L159.2 97.52C158.36 97.71 157.46 97.79 156.51 97.79L156.5 97.78Z" fill="white"/>
<path d="M168.27 59.02C155.15 21.99 100.6 16.85 79.6797 50.48C79.6097 50.67 79.5397 50.85 79.4397 51.03C80.3597 51.01 86.9997 50.86 86.9997 50.86C102.9 23.33 154.98 30.94 163.95 60.22C178.28 101.1 122.52 125.05 92.9197 102.06C92.5697 102.36 92.1897 102.61 91.7797 102.82C122.48 128.6 182.86 102.48 168.27 59.02Z" fill="white"/>
<path d="M84.5497 94.4099C83.2097 98.9699 80.4997 103.91 75.6097 105.26L75.4397 104.32L92.8997 101.99L93.0897 103.78L75.5397 105.27C74.9697 105.32 74.8197 104.47 75.3697 104.33C78.7397 103.44 80.9997 100.45 82.4097 97.4099C82.8897 96.3699 83.3197 95.2699 83.6097 94.1799L84.5397 94.4099H84.5497Z" fill="white"/>
<path d="M10.4788 84.9481C14.9847 83.9665 18.1181 80.7866 17.4774 77.8457C16.8367 74.9047 12.6645 73.3163 8.15864 74.2979C3.65275 75.2796 0.519388 78.4594 1.16009 81.4004C1.80078 84.3414 5.97292 85.9298 10.4788 84.9481Z" fill="white"/>
<path d="M38.9077 7.004H36.0757C35.8717 7.004 35.7397 6.836 35.7397 6.584C35.7397 6.344 35.8717 6.164 36.0757 6.164H39.8437C40.3357 5.48 40.7077 4.748 40.9717 4.124C41.0437 3.968 41.1517 3.884 41.3317 3.884C41.4037 3.884 41.4877 3.896 41.5717 3.92C41.7517 3.992 41.8717 4.124 41.8717 4.28C41.8717 4.34 41.8597 4.4 41.8237 4.46C41.5717 4.976 41.2117 5.6 40.8157 6.164H42.9757C43.1917 6.164 43.3117 6.344 43.3117 6.584C43.3117 6.824 43.1917 7.004 42.9757 7.004H39.8197V8.564H42.5317C42.7477 8.564 42.8797 8.732 42.8797 8.972C42.8797 9.236 42.7477 9.392 42.5317 9.392H39.8197V11.108H43.2037C43.4197 11.108 43.5517 11.276 43.5517 11.528C43.5517 11.792 43.4197 11.96 43.2037 11.96H39.8197V14.6C39.8197 14.828 39.6637 14.96 39.3637 14.96C39.0877 14.96 38.9077 14.828 38.9077 14.6V11.96H35.9197C35.6917 11.96 35.5717 11.792 35.5717 11.528C35.5717 11.288 35.6917 11.108 35.9197 11.108H38.9077V9.392H36.3997C36.1837 9.392 36.0517 9.236 36.0517 8.972C36.0517 8.732 36.1837 8.564 36.3997 8.564H38.9077V7.004ZM36.9637 3.956C37.0597 3.908 37.1557 3.884 37.2517 3.884C37.3837 3.884 37.5037 3.932 37.5757 4.016C37.9237 4.424 38.2357 4.904 38.4037 5.228C38.4397 5.3 38.4637 5.372 38.4637 5.444C38.4637 5.588 38.3917 5.72 38.2237 5.804C38.1637 5.84 38.0797 5.852 38.0077 5.852C37.8517 5.852 37.6957 5.78 37.5997 5.624C37.4317 5.324 37.1437 4.88 36.8437 4.508C36.7837 4.436 36.7597 4.364 36.7597 4.28C36.7597 4.16 36.8197 4.04 36.9637 3.956ZM34.8997 8.384C35.0077 8.48 35.0797 8.612 35.0797 8.756C35.0797 8.852 35.0437 8.948 34.9717 9.032C34.8757 9.152 34.7437 9.212 34.5997 9.212C34.4797 9.212 34.3717 9.164 34.2757 9.08C33.8197 8.672 33.1717 8.192 32.6917 7.904C32.5837 7.844 32.5237 7.724 32.5237 7.58C32.5237 7.484 32.5597 7.388 32.6197 7.292C32.7157 7.172 32.8477 7.112 32.9917 7.112C33.0757 7.112 33.1597 7.136 33.2317 7.172C33.7717 7.472 34.4317 7.976 34.8997 8.384ZM34.8157 10.688C35.0317 10.76 35.1517 10.916 35.1517 11.096C35.1517 11.156 35.1397 11.216 35.1157 11.276C34.6957 12.32 34.1437 13.64 33.4837 14.6C33.3877 14.732 33.2317 14.804 33.0877 14.804C32.9917 14.804 32.8837 14.78 32.7997 14.708C32.6557 14.612 32.5717 14.48 32.5717 14.336C32.5717 14.252 32.6077 14.156 32.6677 14.072C33.2797 13.172 33.8677 11.96 34.2397 10.94C34.2997 10.748 34.4557 10.652 34.6237 10.652C34.6837 10.652 34.7557 10.664 34.8157 10.688ZM35.3917 6.152C35.2957 6.26 35.1757 6.308 35.0557 6.308C34.9237 6.308 34.7797 6.248 34.6717 6.14C34.2877 5.756 33.6757 5.204 33.2077 4.892C33.1117 4.82 33.0517 4.688 33.0517 4.556C33.0517 4.46 33.0877 4.352 33.1597 4.268C33.2557 4.16 33.3877 4.088 33.5317 4.088C33.6277 4.088 33.7117 4.112 33.8077 4.172C34.2637 4.472 34.9357 5.06 35.3677 5.492C35.4637 5.6 35.5117 5.732 35.5117 5.852C35.5117 5.96 35.4757 6.068 35.3917 6.152ZM48.8317 11.636H45.1237C44.9077 11.636 44.7877 11.48 44.7877 11.228C44.7877 10.976 44.9077 10.82 45.1237 10.82H49.5517V10.196C49.5517 9.98 49.7437 9.848 50.0077 9.848C50.2837 9.848 50.4397 9.98 50.4397 10.196V10.82H55.0237C55.2397 10.82 55.3597 10.976 55.3597 11.228C55.3597 11.48 55.2397 11.636 55.0237 11.636H51.1357C52.2157 12.632 53.7997 13.472 55.3237 13.844C55.5397 13.904 55.6597 14.06 55.6597 14.252C55.6597 14.312 55.6477 14.372 55.6237 14.432C55.5637 14.636 55.3957 14.756 55.1917 14.756C55.1437 14.756 55.0957 14.744 55.0357 14.732C53.2117 14.204 51.3037 13.028 50.3077 11.792C50.3797 12.152 50.4397 12.644 50.4397 13.04V14.684C50.4397 14.888 50.2837 15.02 49.9957 15.02C49.7437 15.02 49.5517 14.888 49.5517 14.684V13.1C49.5517 12.704 49.6117 12.176 49.6957 11.804C48.7237 12.992 46.8637 14.156 45.1717 14.744C45.1117 14.756 45.0637 14.768 45.0037 14.768C44.8117 14.768 44.6437 14.66 44.5717 14.48C44.5477 14.408 44.5357 14.348 44.5357 14.288C44.5357 14.084 44.6557 13.94 44.8357 13.892C46.2877 13.46 47.8717 12.56 48.8317 11.636ZM50.1637 5H51.3517C52.0477 5 52.3357 5.264 52.3357 5.912V8.696C52.3357 9.356 52.0477 9.608 51.3517 9.608H48.8077C48.0997 9.608 47.8237 9.356 47.8237 8.696V5.912C47.8237 5.264 48.1117 5 48.8077 5H49.2757C49.4197 4.688 49.5397 4.352 49.6237 4.052C49.6837 3.872 49.8397 3.788 50.0437 3.788C50.0797 3.788 50.1157 3.788 50.1637 3.8C50.3917 3.836 50.5117 3.956 50.5117 4.1C50.5117 4.136 50.4997 4.184 50.4877 4.232C50.3797 4.508 50.2717 4.784 50.1637 5ZM48.6637 6.932H51.4957V6.02C51.4957 5.804 51.3877 5.744 51.1597 5.744H48.9877C48.7717 5.744 48.6637 5.804 48.6637 6.02V6.932ZM48.6637 7.652V8.588C48.6637 8.804 48.7717 8.864 48.9877 8.864H51.1597C51.3877 8.864 51.4957 8.804 51.4957 8.588V7.652H48.6637ZM45.6637 4.724C46.2037 5.132 46.8037 5.708 47.1517 6.116C47.2477 6.224 47.3077 6.356 47.3077 6.5C47.3077 6.608 47.2717 6.716 47.1877 6.8C47.0917 6.896 46.9717 6.944 46.8517 6.944C46.7317 6.944 46.6117 6.896 46.5277 6.788C46.1797 6.38 45.5557 5.768 45.0517 5.36C44.9677 5.288 44.9197 5.192 44.9197 5.096C44.9197 5 44.9557 4.892 45.0397 4.796C45.1357 4.688 45.2677 4.628 45.3877 4.628C45.4837 4.628 45.5797 4.664 45.6637 4.724ZM54.4477 4.724C54.5317 4.616 54.6637 4.556 54.7837 4.556C54.8917 4.556 55.0117 4.592 55.0957 4.688C55.2157 4.784 55.2637 4.892 55.2637 5.012C55.2637 5.12 55.2157 5.228 55.1317 5.324C54.6877 5.852 53.9677 6.512 53.5477 6.812C53.4037 6.908 53.2837 6.956 53.1757 6.956C53.0557 6.956 52.9477 6.896 52.8637 6.8C52.7917 6.728 52.7557 6.632 52.7557 6.524C52.7557 6.392 52.8037 6.26 52.9117 6.176C53.3797 5.852 54.0397 5.228 54.4477 4.724ZM46.8637 7.856C46.9477 7.796 47.0437 7.772 47.1277 7.772C47.2597 7.772 47.3797 7.832 47.4517 7.952C47.4997 8.012 47.5117 8.084 47.5117 8.156C47.5117 8.312 47.4157 8.456 47.2957 8.54C46.7917 8.948 45.8437 9.5 45.1717 9.812C45.0997 9.848 45.0277 9.86 44.9677 9.86C44.7997 9.86 44.6557 9.776 44.5837 9.62C44.5477 9.548 44.5357 9.476 44.5357 9.416C44.5357 9.236 44.6317 9.092 44.7877 9.032C45.4837 8.732 46.3837 8.216 46.8637 7.856ZM53.3317 7.772C53.8597 8.024 54.8677 8.648 55.3597 8.996C55.5157 9.104 55.6117 9.26 55.6117 9.416C55.6117 9.488 55.5877 9.56 55.5517 9.632C55.4557 9.788 55.2997 9.872 55.1437 9.872C55.0477 9.872 54.9517 9.836 54.8677 9.776C54.3637 9.392 53.4277 8.78 52.8277 8.504C52.6957 8.444 52.6117 8.312 52.6117 8.156C52.6117 8.084 52.6357 8.012 52.6717 7.928C52.7437 7.784 52.8757 7.7 53.0437 7.7C53.1277 7.7 53.2237 7.724 53.3317 7.772ZM59.0077 6.224H60.1357C60.7477 6.224 61.0957 6.44 61.0957 7.052C61.0957 7.112 61.0957 7.172 61.0837 7.232C60.8917 8.996 60.4357 10.496 59.7637 11.732C60.1957 12.116 60.6037 12.512 60.9757 12.908C61.0597 12.992 61.0957 13.112 61.0957 13.22C61.0957 13.352 61.0477 13.472 60.9397 13.58C60.8437 13.676 60.7237 13.736 60.6037 13.736C60.4957 13.736 60.3877 13.688 60.2917 13.568C60.0037 13.22 59.6557 12.86 59.2837 12.512C58.7077 13.364 58.0117 14.072 57.2197 14.648C57.1237 14.72 57.0157 14.756 56.9317 14.756C56.7877 14.756 56.6677 14.684 56.5717 14.552C56.5117 14.48 56.4757 14.372 56.4757 14.276C56.4757 14.132 56.5357 14 56.6557 13.916C57.4357 13.4 58.1077 12.74 58.6477 11.948C58.1917 11.552 57.7117 11.18 57.2557 10.844C57.0037 10.676 56.8837 10.46 56.8837 10.196C56.8837 10.052 56.9197 9.896 56.9917 9.728C57.3277 8.972 57.6397 8.048 57.9037 7.052H56.8957C56.6677 7.052 56.5477 6.884 56.5477 6.632C56.5477 6.392 56.6677 6.224 56.8957 6.224H58.0957C58.2277 5.588 58.3357 4.94 58.4077 4.292C58.4197 4.052 58.5637 3.944 58.8277 3.944C58.8517 3.944 58.8757 3.944 58.9117 3.944C59.1637 3.968 59.3317 4.088 59.3317 4.316C59.3317 4.34 59.3317 4.364 59.3317 4.388C59.2477 5.012 59.1397 5.624 59.0077 6.224ZM59.8717 7.052H58.8037C58.5397 8.096 58.2157 9.056 57.8917 9.848C57.8557 9.932 57.8317 10.016 57.8317 10.076C57.8317 10.184 57.8917 10.256 58.0117 10.34C58.3717 10.592 58.7437 10.88 59.1037 11.18C59.6557 10.136 60.0277 8.876 60.1837 7.376C60.1837 7.352 60.1837 7.328 60.1837 7.304C60.1837 7.112 60.0877 7.052 59.8717 7.052ZM64.7797 9.908V13.724C64.7797 14.528 64.2757 14.864 63.3757 14.864C62.9437 14.864 62.4517 14.816 62.1277 14.744C61.9357 14.696 61.7917 14.528 61.7917 14.312C61.7917 14.276 61.7917 14.228 61.8037 14.192C61.8637 13.94 62.0077 13.82 62.2117 13.82C62.2477 13.82 62.2837 13.82 62.3197 13.832C62.5717 13.892 63.0517 13.952 63.3277 13.952C63.7357 13.952 63.8797 13.844 63.8797 13.496V9.908H61.5277C61.3117 9.908 61.1917 9.74 61.1917 9.476C61.1917 9.212 61.3117 9.044 61.5277 9.044H63.8797V7.52C63.8797 7.256 64.0597 7.136 64.3357 7.136C64.3957 7.136 64.4437 7.136 64.4917 7.148C65.1277 6.692 65.6917 6.212 66.0277 5.696C66.0757 5.624 66.0997 5.564 66.0997 5.528C66.0997 5.444 66.0277 5.408 65.8957 5.408H61.8877C61.6597 5.408 61.5157 5.228 61.5157 4.964C61.5157 4.7 61.6597 4.532 61.8877 4.532H66.3397C66.9277 4.532 67.2157 4.868 67.2157 5.252C67.2157 5.432 67.1557 5.612 67.0477 5.78C66.5197 6.584 65.7397 7.256 64.7797 7.952V9.044H67.4077C67.6237 9.044 67.7437 9.212 67.7437 9.476C67.7437 9.74 67.6237 9.908 67.4077 9.908H64.7797ZM76.5037 10.688L76.5517 10.628C75.9637 10.112 75.4357 9.44 74.9677 8.744C73.3717 8.96 71.7157 9.128 70.0237 9.14C69.6997 9.128 69.5317 8.96 69.5317 8.72C69.5317 8.708 69.5317 8.696 69.5317 8.684C69.5317 8.396 69.6877 8.264 69.9517 8.252C71.3197 8.24 72.8677 8.132 74.4637 7.916C74.2117 7.52 73.9957 7.088 73.7797 6.632C72.5437 6.788 71.2117 6.884 69.9757 6.884C69.6877 6.884 69.5077 6.716 69.4957 6.44C69.4957 6.176 69.6637 5.996 69.9277 5.996C71.0197 5.996 72.2317 5.924 73.3717 5.792C73.2277 5.468 73.0957 5.108 72.9517 4.76C72.9157 4.688 72.9037 4.628 72.9037 4.556C72.9037 4.376 73.0237 4.232 73.2397 4.172C73.3117 4.16 73.3717 4.148 73.4317 4.148C73.6357 4.148 73.7917 4.256 73.8757 4.52C74.0077 4.916 74.1637 5.312 74.3077 5.684C75.4597 5.516 76.5157 5.3 77.3797 5.048C77.4517 5.024 77.5117 5.012 77.5717 5.012C77.7637 5.012 77.9077 5.108 77.9677 5.336C77.9797 5.396 77.9917 5.456 77.9917 5.504C77.9917 5.696 77.8957 5.828 77.6797 5.9C76.8397 6.14 75.8077 6.344 74.6797 6.536C74.8717 6.968 75.0997 7.388 75.3517 7.796C76.2877 7.64 77.2117 7.448 78.0277 7.232C78.0997 7.22 78.1597 7.208 78.2197 7.208C78.4477 7.208 78.5917 7.304 78.6397 7.52C78.6517 7.58 78.6637 7.628 78.6637 7.676C78.6637 7.892 78.5317 8.012 78.2797 8.096C77.5957 8.264 76.8037 8.432 75.8797 8.588C76.3117 9.26 76.9597 10.016 77.6677 10.736C77.8597 10.916 77.9077 11.072 77.9077 11.216C77.9077 11.504 77.6677 11.756 77.4037 11.756C77.2357 11.756 77.0917 11.696 76.8277 11.564C75.9997 11.156 75.0037 10.904 73.7797 10.904C71.6917 10.904 71.0437 11.516 71.0437 12.296C71.0437 13.148 71.8957 13.556 73.8157 13.556C74.8117 13.556 75.9277 13.4 76.8997 13.1C76.9717 13.076 77.0437 13.064 77.1157 13.064C77.3197 13.064 77.4877 13.172 77.5477 13.412C77.5597 13.472 77.5717 13.532 77.5717 13.592C77.5717 13.808 77.4517 13.988 77.2117 14.06C76.1437 14.384 74.9797 14.516 73.7557 14.516C71.2957 14.516 70.0117 13.712 70.0117 12.332C70.0117 11.036 71.1517 10.076 73.7557 10.076C74.7397 10.076 75.7477 10.292 76.5037 10.688ZM85.5157 7.976C86.7037 7.472 88.1077 6.992 89.1757 6.716C89.2477 6.704 89.3077 6.692 89.3677 6.692C89.6077 6.692 89.7637 6.812 89.8357 7.052C89.8477 7.112 89.8597 7.172 89.8597 7.232C89.8597 7.448 89.7277 7.628 89.4517 7.7C88.2037 8.012 86.4997 8.564 85.2277 9.14C83.6677 9.848 82.8517 10.748 82.8517 11.624C82.8517 12.668 83.6197 13.196 86.1637 13.196C87.3397 13.196 88.6597 13.064 89.5717 12.872C89.6197 12.86 89.6677 12.86 89.7157 12.86C89.9797 12.86 90.1597 13.016 90.1957 13.292C90.2077 13.34 90.2077 13.376 90.2077 13.424C90.2077 13.676 90.0397 13.88 89.7517 13.94C88.8277 14.144 87.5197 14.228 86.1157 14.228C83.1757 14.24 81.8197 13.424 81.8197 11.612C81.8197 10.4 82.8277 9.224 84.5557 8.384C84.1957 7.304 83.9077 6.056 83.6797 4.844C83.6677 4.808 83.6677 4.772 83.6677 4.736C83.6677 4.472 83.8597 4.316 84.0997 4.268C84.1477 4.256 84.1837 4.256 84.2317 4.256C84.4717 4.256 84.6757 4.388 84.7117 4.664C84.9157 5.804 85.1677 6.968 85.5157 7.976ZM97.6117 14.864V12.788C96.0997 12.836 94.5997 12.86 93.2677 12.86C93.0517 12.86 92.9077 12.716 92.9077 12.476C92.9077 12.464 92.9077 12.452 92.9077 12.452C92.9077 12.224 93.0517 12.08 93.2557 12.08C93.6517 12.08 94.0597 12.08 94.4797 12.08C95.1757 12.08 95.8957 12.08 96.6277 12.068C96.0037 11.66 95.3077 11.228 94.7557 10.94C94.5997 10.856 94.5397 10.76 94.5397 10.652C94.5397 10.58 94.5757 10.496 94.6357 10.424C94.7197 10.316 94.8277 10.268 94.9597 10.268C95.0317 10.268 95.1277 10.292 95.2237 10.34C95.4397 10.448 95.7037 10.592 95.9917 10.772C96.4957 10.46 96.9757 10.076 97.2757 9.788C97.3597 9.704 97.4557 9.668 97.5637 9.668C97.6477 9.668 97.7437 9.704 97.8397 9.764C97.9357 9.836 97.9957 9.944 97.9957 10.052C97.9957 10.136 97.9597 10.208 97.8997 10.268C97.5397 10.592 97.0597 10.916 96.6397 11.18C96.6877 11.216 96.7357 11.24 96.7837 11.276C97.0237 11.432 97.2517 11.6 97.4797 11.768C98.2357 11.264 98.9077 10.748 99.4357 10.256C99.5317 10.172 99.6637 10.112 99.7957 10.112C99.8797 10.112 99.9757 10.136 100.072 10.196C100.192 10.268 100.252 10.388 100.252 10.508C100.252 10.592 100.228 10.664 100.156 10.712C99.6157 11.192 98.9197 11.672 98.3077 12.044C99.3517 12.044 100.396 11.996 101.44 11.96C101.248 11.804 101.056 11.672 100.888 11.564C100.768 11.468 100.708 11.372 100.708 11.264C100.708 11.168 100.768 11.072 100.852 11C100.936 10.916 101.044 10.88 101.14 10.88C101.236 10.88 101.344 10.916 101.44 10.988C101.98 11.36 102.76 11.96 103.24 12.416C103.348 12.536 103.408 12.656 103.408 12.776C103.408 12.872 103.372 12.956 103.3 13.028C103.192 13.136 103.072 13.184 102.964 13.184C102.844 13.184 102.736 13.136 102.652 13.052C102.508 12.884 102.328 12.728 102.148 12.56C100.936 12.644 99.7117 12.704 98.4997 12.752V14.864C98.4997 15.068 98.3077 15.2 98.0557 15.2C97.7797 15.2 97.6117 15.068 97.6117 14.864ZM95.7517 5.516H97.0477C97.5757 5.516 97.8397 5.708 97.8397 6.188V7.688C97.8397 8.156 97.5757 8.36 97.0477 8.36H95.7517V8.84H97.8517C98.0197 8.84 98.1157 8.984 98.1157 9.164C98.1157 9.332 98.0197 9.488 97.8517 9.488H95.7517V9.86C95.7517 10.028 95.6677 10.124 95.4037 10.124C95.1517 10.124 95.0317 10.028 95.0317 9.86V9.488H92.8117C92.6437 9.488 92.5477 9.332 92.5477 9.164C92.5477 8.984 92.6437 8.84 92.8117 8.84H95.0317V8.36H93.7957C93.2677 8.36 93.0157 8.156 93.0157 7.688V6.188C93.0157 5.708 93.2677 5.516 93.7957 5.516H95.0317V5.036H92.8717C92.7037 5.036 92.6077 4.88 92.6077 4.712C92.6077 4.532 92.7037 4.4 92.8717 4.4H95.0317V4.1C95.0317 3.896 95.1517 3.8 95.4037 3.8C95.6677 3.8 95.7517 3.896 95.7517 4.1V4.4H97.8757C98.0437 4.4 98.1397 4.532 98.1397 4.712C98.1397 4.88 98.0437 5.036 97.8757 5.036H95.7517V5.516ZM95.7517 7.784H96.8197C97.0117 7.784 97.0957 7.736 97.0957 7.568V7.196H95.7517V7.784ZM95.7517 6.656H97.0957V6.308C97.0957 6.14 97.0117 6.092 96.8197 6.092H95.7517V6.656ZM95.0317 6.092H94.0357C93.8437 6.092 93.7597 6.14 93.7597 6.308V6.656H95.0317V6.092ZM95.0317 7.196H93.7597V7.568C93.7597 7.736 93.8437 7.784 94.0357 7.784H95.0317V7.196ZM98.8837 7.448H98.5477C98.3917 7.448 98.2957 7.304 98.2957 7.112C98.2957 6.932 98.3917 6.776 98.5477 6.776H102.268C102.676 6.776 102.916 7.004 102.916 7.304C102.916 7.472 102.844 7.652 102.7 7.832C102.412 8.192 102.028 8.528 101.584 8.84C102.148 9.116 102.784 9.32 103.432 9.428C103.648 9.464 103.744 9.596 103.744 9.764C103.744 9.8 103.744 9.824 103.732 9.86C103.696 10.064 103.564 10.196 103.372 10.196C103.348 10.196 103.312 10.196 103.276 10.184C102.46 10.016 101.632 9.704 100.888 9.26C100.24 9.62 99.5197 9.908 98.8237 10.088C98.7757 10.1 98.7277 10.112 98.6797 10.112C98.5117 10.112 98.3917 10.028 98.3317 9.86C98.3197 9.812 98.3077 9.764 98.3077 9.728C98.3077 9.572 98.4037 9.44 98.5837 9.392C99.1477 9.272 99.7117 9.056 100.216 8.816C99.7117 8.42 99.2437 7.976 98.8837 7.448ZM101.764 7.448H99.7477C100.072 7.832 100.456 8.168 100.876 8.444C101.272 8.192 101.608 7.916 101.848 7.652C101.896 7.604 101.92 7.556 101.92 7.52C101.92 7.472 101.872 7.448 101.764 7.448ZM95.4877 13.16C95.5717 13.1 95.6677 13.076 95.7637 13.076C95.8837 13.076 96.0037 13.124 96.0997 13.208C96.1837 13.292 96.2317 13.388 96.2317 13.484C96.2317 13.592 96.1717 13.7 96.0637 13.772C95.3557 14.288 94.3117 14.768 93.4837 15.032C93.4477 15.044 93.4117 15.044 93.3637 15.044C93.1957 15.044 93.0157 14.936 92.9437 14.744C92.9197 14.684 92.9077 14.612 92.9077 14.564C92.9077 14.384 93.0157 14.252 93.1957 14.192C93.9997 13.952 94.8877 13.58 95.4877 13.16ZM100.624 13.076C101.176 13.46 102.136 13.928 102.952 14.156C103.156 14.204 103.252 14.36 103.252 14.528C103.252 14.588 103.24 14.648 103.216 14.708C103.144 14.888 102.976 14.984 102.796 14.984C102.76 14.984 102.712 14.984 102.664 14.972C101.788 14.72 100.72 14.228 100.024 13.7C99.9037 13.616 99.8557 13.508 99.8557 13.4C99.8557 13.304 99.9037 13.196 99.9877 13.112C100.084 13.028 100.204 12.98 100.324 12.98C100.42 12.98 100.528 13.016 100.624 13.076ZM101.224 5.624V4.952C101.224 4.748 101.116 4.688 100.936 4.688H100.144C99.9637 4.688 99.8557 4.76 99.8557 4.928C99.8317 5.744 99.4717 6.188 98.6677 6.548C98.6077 6.572 98.5357 6.584 98.4637 6.584C98.3437 6.584 98.2117 6.524 98.1277 6.368C98.0917 6.308 98.0797 6.236 98.0797 6.188C98.0797 6.044 98.1637 5.924 98.2837 5.876C98.9197 5.6 99.0997 5.3 99.0997 4.688C99.0997 4.232 99.3637 4.016 99.9157 4.016H101.176C101.728 4.016 101.992 4.244 101.992 4.76V5.42C101.992 5.6 102.04 5.636 102.388 5.636C102.64 5.636 102.76 5.588 102.82 5.468C102.868 5.372 102.904 5.192 102.916 5.012C102.928 4.844 103.048 4.736 103.252 4.736C103.264 4.736 103.288 4.736 103.312 4.736C103.54 4.76 103.648 4.892 103.648 5.084C103.636 5.444 103.54 5.732 103.396 5.936C103.24 6.14 103.036 6.26 102.304 6.26C101.452 6.26 101.224 6.104 101.224 5.624ZM112.228 6.644C112.168 6.572 112.144 6.488 112.144 6.404C112.144 6.236 112.24 6.08 112.396 5.996C112.48 5.948 112.576 5.924 112.672 5.924C112.828 5.924 112.996 5.996 113.092 6.14C113.98 7.316 114.844 9.044 115.252 10.412C115.276 10.496 115.288 10.568 115.288 10.628C115.288 10.844 115.18 11 114.988 11.06C114.904 11.096 114.832 11.108 114.76 11.108C114.556 11.108 114.376 10.988 114.304 10.736C113.884 9.452 113.116 7.82 112.228 6.644ZM114.496 3.86C114.568 3.812 114.64 3.788 114.724 3.788C114.832 3.788 114.94 3.836 115.048 3.956C115.372 4.292 115.672 4.736 115.888 5.108C115.948 5.204 115.972 5.288 115.972 5.372C115.972 5.516 115.888 5.636 115.78 5.72C115.708 5.768 115.636 5.792 115.552 5.792C115.432 5.792 115.3 5.72 115.216 5.576C114.976 5.192 114.688 4.748 114.4 4.436C114.34 4.352 114.316 4.268 114.316 4.184C114.316 4.052 114.376 3.932 114.496 3.86ZM107.572 6.872C107.752 6.14 107.884 5.396 107.992 4.664C108.028 4.352 108.208 4.244 108.448 4.244C108.484 4.244 108.52 4.244 108.556 4.256C108.832 4.28 108.988 4.424 108.988 4.664C108.988 4.7 108.988 4.736 108.976 4.772C108.88 5.456 108.736 6.164 108.58 6.824C108.928 6.812 109.216 6.8 109.504 6.8C111.148 6.8 111.868 7.64 111.868 9.512C111.868 10.664 111.7 11.852 111.448 12.716C111.112 13.892 110.428 14.324 109.468 14.324C108.892 14.324 108.22 14.168 107.728 13.892C107.56 13.796 107.464 13.628 107.464 13.448C107.464 13.364 107.476 13.28 107.524 13.208C107.596 13.04 107.74 12.944 107.908 12.944C108.004 12.944 108.112 12.968 108.22 13.028C108.568 13.196 109.048 13.328 109.492 13.328C109.996 13.328 110.308 13.112 110.524 12.344C110.716 11.672 110.872 10.532 110.872 9.464C110.872 8.132 110.524 7.688 109.396 7.688C108.988 7.688 108.664 7.712 108.364 7.736C108.172 8.432 107.956 9.14 107.716 9.836C107.152 11.456 106.504 12.908 105.772 14.096C105.652 14.312 105.484 14.396 105.316 14.396C105.232 14.396 105.136 14.372 105.052 14.312C104.884 14.216 104.788 14.06 104.788 13.892C104.788 13.796 104.812 13.688 104.884 13.58C105.604 12.428 106.252 11.06 106.792 9.536C106.984 8.972 107.188 8.396 107.344 7.808C106.732 7.856 105.88 7.976 105.196 8.072C105.16 8.084 105.124 8.084 105.088 8.084C104.884 8.084 104.716 7.952 104.68 7.7C104.668 7.676 104.668 7.64 104.668 7.604C104.668 7.376 104.824 7.196 105.076 7.16C105.796 7.052 106.792 6.932 107.572 6.872ZM113.236 4.544C113.32 4.496 113.404 4.46 113.5 4.46C113.608 4.46 113.716 4.508 113.8 4.604C114.124 4.988 114.46 5.444 114.7 5.828C114.748 5.9 114.772 5.984 114.772 6.068C114.772 6.224 114.712 6.356 114.592 6.44C114.532 6.488 114.448 6.512 114.364 6.512C114.22 6.512 114.088 6.452 114.004 6.32C113.776 5.924 113.452 5.48 113.14 5.108C113.08 5.036 113.056 4.952 113.056 4.868C113.056 4.736 113.116 4.616 113.236 4.544ZM120.64 9.164L120.676 9.236C121.564 8.804 122.584 8.588 123.46 8.588C125.584 8.588 126.76 9.656 126.76 11.264C126.76 13.172 125.068 14.372 122.152 14.372C121.204 14.372 120.172 14.264 119.476 14.048C119.236 13.964 119.08 13.784 119.08 13.556C119.08 13.508 119.08 13.46 119.092 13.412C119.152 13.16 119.332 13.028 119.572 13.028C119.62 13.028 119.68 13.04 119.74 13.052C120.34 13.244 121.276 13.376 122.092 13.376C124.408 13.376 125.728 12.488 125.728 11.24C125.728 10.088 124.816 9.428 123.292 9.428C122.332 9.428 121.396 9.62 120.412 10.028C119.68 10.328 118.936 10.748 118.144 11.264C118.024 11.336 117.916 11.372 117.808 11.372C117.64 11.372 117.484 11.288 117.388 11.144C117.328 11.06 117.304 10.964 117.304 10.868C117.304 10.7 117.388 10.532 117.556 10.436C119.608 9.092 122.032 7.232 123.664 5.696C122.524 5.804 120.928 5.864 119.488 5.864C119.356 5.864 119.224 5.864 119.092 5.864C118.804 5.852 118.612 5.684 118.612 5.408C118.612 5.108 118.78 4.916 119.056 4.916C119.068 4.916 119.068 4.916 119.08 4.916C119.908 4.916 120.82 4.916 121.696 4.892C122.596 4.868 123.496 4.832 124.252 4.772C124.288 4.772 124.324 4.772 124.348 4.772C124.684 4.772 124.864 4.88 124.996 5.072C125.044 5.156 125.068 5.264 125.068 5.36C125.068 5.552 124.984 5.744 124.816 5.9C123.916 6.788 122.848 7.64 121.888 8.348C121.504 8.636 121.084 8.912 120.64 9.164ZM131.368 5.348C131.116 5.288 130.984 5.12 130.984 4.892C130.984 4.844 130.996 4.796 131.008 4.736C131.068 4.472 131.26 4.34 131.512 4.34C131.536 4.34 131.572 4.34 131.608 4.34C133.072 4.676 135.1 4.904 136.684 4.976C136.996 4.988 137.176 5.204 137.176 5.504C137.176 5.504 137.176 5.516 137.176 5.528C137.164 5.816 136.972 5.984 136.66 5.984C136.648 5.984 136.636 5.984 136.624 5.984C135.04 5.948 132.784 5.672 131.368 5.348ZM138.112 9.884C138.112 11.408 137.344 12.632 135.784 13.496C134.848 14.012 133.504 14.408 132.352 14.552C132.316 14.564 132.28 14.564 132.244 14.564C131.968 14.564 131.8 14.396 131.74 14.132C131.728 14.096 131.728 14.048 131.728 14.012C131.728 13.76 131.884 13.568 132.16 13.52C133.24 13.376 134.536 13.016 135.364 12.548C136.528 11.888 137.068 10.976 137.068 9.932C137.068 8.948 136.432 8.264 134.728 8.264C133.468 8.264 131.74 8.636 130.384 9.056C130.324 9.068 130.264 9.08 130.204 9.08C130 9.08 129.82 8.96 129.736 8.72C129.724 8.66 129.712 8.6 129.712 8.54C129.712 8.3 129.856 8.108 130.084 8.048C131.44 7.628 133.324 7.292 134.704 7.292C136.996 7.292 138.112 8.372 138.112 9.884Z" fill="white"/>
</svg>
