<svg width="22" height="19" viewBox="0 0 22 19" fill="none" xmlns="http://www.w3.org/2000/svg">
<path d="M19.736 2.56798C20.672 3.73798 21.218 5.24598 21.218 6.85798C21.218 9.35398 19.892 12.058 16.772 13.852C14.744 15.022 13.288 16.062 11 18.298C8.68598 16.062 7.20398 15.022 5.17598 13.852C2.05598 12.058 0.72998 9.35398 0.72998 6.85798C0.72998 5.24598 1.27598 3.71198 2.21198 2.56798C3.19998 1.34598 4.81198 0.617981 6.39798 0.617981C8.26998 0.617981 10.116 1.60598 10.974 3.94598C11.806 1.60598 13.678 0.617981 15.524 0.617981C17.136 0.617981 18.748 1.34598 19.736 2.56798ZM16.382 12.838C20.646 10.186 20.542 5.55798 18.852 3.34798C17.084 1.00798 13.028 1.16398 11.572 5.01198C11.26 5.86998 10.688 5.86998 10.376 5.01198C8.89398 1.16398 4.86398 1.00798 3.09598 3.34798C1.35398 5.60998 1.30198 10.186 5.59198 12.838C7.95798 14.268 9.36198 15.178 11 16.79C12.534 15.23 14.016 14.268 16.382 12.838Z" fill="#888888"/>
</svg>
