<svg width="26" height="26" viewBox="0 0 26 26" fill="none" xmlns="http://www.w3.org/2000/svg">
<path fill-rule="evenodd" clip-rule="evenodd" d="M12.0808 0.380761C12.5884 -0.12692 13.4116 -0.12692 13.9192 0.380761L25.6192 12.0808C26.1269 12.5884 26.1269 13.4116 25.6192 13.9192C25.1116 14.4269 24.2884 14.4269 23.7808 13.9192L13 3.13848L2.21924 13.9192C1.71156 14.4269 0.888443 14.4269 0.380761 13.9192C-0.12692 13.4116 -0.12692 12.5884 0.380761 12.0808L12.0808 0.380761Z" fill="white"/>
<path fill-rule="evenodd" clip-rule="evenodd" d="M4.55 14.3C5.26797 14.3 5.85 14.8821 5.85 15.6V23.4H9.1V19.5C9.1 18.8105 9.37393 18.1492 9.86152 17.6616C10.3491 17.174 11.0104 16.9 11.7 16.9H14.3C14.9896 16.9 15.6509 17.174 16.1385 17.6616C16.6261 18.1492 16.9 18.8105 16.9 19.5V23.4H20.15V15.6C20.15 14.8821 20.732 14.3 21.45 14.3C22.168 14.3 22.75 14.8821 22.75 15.6V24.05C22.75 24.5672 22.5446 25.0632 22.1789 25.4289C21.8132 25.7946 21.3172 26 20.8 26H16.25C15.7328 26 15.2368 25.7946 14.8711 25.4289C14.5054 25.0632 14.3 24.5672 14.3 24.05V19.5L11.7 19.5V24.05C11.7 24.5672 11.4946 25.0632 11.1289 25.4289C10.7632 25.7946 10.2672 26 9.75 26H5.2C4.68283 26 4.18684 25.7946 3.82114 25.4289C3.45545 25.0632 3.25 24.5672 3.25 24.05V15.6C3.25 14.8821 3.83203 14.3 4.55 14.3Z" fill="white"/>
</svg>
