<svg width="44" height="44" viewBox="0 0 44 44" fill="none" xmlns="http://www.w3.org/2000/svg">
<g clip-path="url(#clip0_2535_172)">
<path d="M30.3508 7.04551L36.9545 13.6492C37.4444 14.139 37.833 14.7205 38.0981 15.3604C38.3632 16.0004 38.4996 16.6864 38.4996 17.3791C38.4996 18.0718 38.3632 18.7578 38.0981 19.3977C37.833 20.0377 37.4444 20.6192 36.9545 21.109L32.109 25.9545C31.6192 26.4444 31.0377 26.833 30.3977 27.0981C29.7577 27.3632 29.0718 27.4997 28.3791 27.4997C27.6864 27.4997 27.0004 27.3632 26.3604 27.0981C25.7205 26.833 25.139 26.4444 24.6492 25.9545L24.0973 25.4027L12.0743 37.4257C11.4652 38.0348 10.661 38.4099 9.80283 38.4854L9.482 38.5H7.33333C6.88429 38.5 6.45088 38.3351 6.11532 38.0367C5.77975 37.7383 5.56537 37.3271 5.51283 36.8812L5.5 36.6667V34.518C5.50021 33.6572 5.8033 32.8239 6.35617 32.164L6.57433 31.9257L7.33333 31.1667H11V27.5H14.6667V23.8333L18.5973 19.9027L18.0455 19.3508C17.5556 18.8611 17.167 18.2796 16.9019 17.6396C16.6368 16.9996 16.5004 16.3137 16.5004 15.6209C16.5004 14.9282 16.6368 14.2423 16.9019 13.6023C17.167 12.9623 17.5556 12.3808 18.0455 11.891L22.891 7.04551C23.3808 6.55565 23.9623 6.16706 24.6023 5.90194C25.2423 5.63682 25.9282 5.50037 26.6209 5.50037C27.3136 5.50037 27.9996 5.63682 28.6396 5.90194C29.2796 6.16706 29.861 6.55565 30.3508 7.04551Z" stroke="#4A6DC7" stroke-width="2.75" stroke-linecap="round" stroke-linejoin="round"/>
<path d="M27.5 16.5H27.5183" stroke="#4A6DC7" stroke-width="2.75" stroke-linecap="round" stroke-linejoin="round"/>
</g>
<defs>
<clipPath id="clip0_2535_172">
<rect width="44" height="44" fill="white"/>
</clipPath>
</defs>
</svg>
