<svg width="30" height="30" viewBox="0 0 30 30" fill="none" xmlns="http://www.w3.org/2000/svg">
<path fill-rule="evenodd" clip-rule="evenodd" d="M26.7429 4.20252C27.0193 4.37333 27.1875 4.67508 27.1875 5V14.375C27.1875 14.8928 26.7678 15.3125 26.25 15.3125C25.7322 15.3125 25.3125 14.8928 25.3125 14.375V6.51691L19.1693 9.58853C18.9053 9.72049 18.5947 9.72049 18.3307 9.58853L11.25 6.04816L4.6875 9.32941V23.4831L10.8307 20.4115C11.0947 20.2795 11.4053 20.2795 11.6693 20.4115L15.4193 22.2865C15.8824 22.518 16.0701 23.0812 15.8385 23.5443C15.607 24.0074 15.0438 24.1951 14.5807 23.9635L11.25 22.2982L4.16926 25.8385C3.87865 25.9838 3.53352 25.9683 3.25713 25.7975C2.98074 25.6267 2.8125 25.3249 2.8125 25V8.75C2.8125 8.3949 3.01313 8.07028 3.33074 7.91148L10.8307 4.16148C11.0947 4.02951 11.4053 4.02951 11.6693 4.16148L18.75 7.70184L25.8307 4.16148C26.1214 4.01617 26.4665 4.0317 26.7429 4.20252Z" fill="white"/>
<path fill-rule="evenodd" clip-rule="evenodd" d="M11.25 4.0625C11.7678 4.0625 12.1875 4.48223 12.1875 5V21.25C12.1875 21.7678 11.7678 22.1875 11.25 22.1875C10.7322 22.1875 10.3125 21.7678 10.3125 21.25V5C10.3125 4.48223 10.7322 4.0625 11.25 4.0625Z" fill="white"/>
<path fill-rule="evenodd" clip-rule="evenodd" d="M18.75 7.8125C19.2678 7.8125 19.6875 8.23223 19.6875 8.75V15.625C19.6875 16.1428 19.2678 16.5625 18.75 16.5625C18.2322 16.5625 17.8125 16.1428 17.8125 15.625V8.75C17.8125 8.23223 18.2322 7.8125 18.75 7.8125Z" fill="white"/>
<path fill-rule="evenodd" clip-rule="evenodd" d="M21.1456 18.6018C21.9165 18.0867 22.8228 17.8117 23.75 17.8117C24.6772 17.8117 25.5835 18.0867 26.3544 18.6018C27.1253 19.1169 27.7261 19.8491 28.0808 20.7057C28.4356 21.5623 28.5283 22.5049 28.3473 23.4142C28.1663 24.3235 27.7198 25.1588 27.0641 25.8143C26.5793 26.3002 25.6652 27.1067 24.3558 28.2154C24.0077 28.5103 23.4979 28.5117 23.1481 28.2188C21.9013 27.1748 20.9899 26.3695 20.4355 25.8138C19.78 25.1584 19.3336 24.3233 19.1527 23.4142C18.9717 22.5049 19.0644 21.5623 19.4192 20.7057C19.7739 19.8491 20.3747 19.1169 21.1456 18.6018ZM23.75 19.6867C23.1937 19.6867 22.6499 19.8517 22.1874 20.1608C21.7248 20.4698 21.3644 20.9091 21.1515 21.4231C20.9387 21.9371 20.883 22.5026 20.9916 23.0482C21.1002 23.5938 21.3681 24.0949 21.7616 24.4882L21.7625 24.4891C22.169 24.8967 22.8265 25.4882 23.7473 26.2712C24.7268 25.4326 25.385 24.8427 25.7374 24.4893L25.7384 24.4882C26.1319 24.0949 26.3998 23.5938 26.5084 23.0482C26.617 22.5026 26.5613 21.9371 26.3485 21.4231C26.1356 20.9091 25.7752 20.4698 25.3126 20.1608C24.8501 19.8517 24.3063 19.6867 23.75 19.6867Z" fill="white"/>
<path fill-rule="evenodd" clip-rule="evenodd" d="M23.75 21.5625C24.2678 21.5625 24.6875 21.9822 24.6875 22.5V22.5125C24.6875 23.0303 24.2678 23.45 23.75 23.45C23.2322 23.45 22.8125 23.0303 22.8125 22.5125V22.5C22.8125 21.9822 23.2322 21.5625 23.75 21.5625Z" fill="white"/>
</svg>
