<svg width="75" height="25" viewBox="0 0 75 25" fill="none" xmlns="http://www.w3.org/2000/svg">
<path fill-rule="evenodd" clip-rule="evenodd" d="M61.4027 0.402728C61.9397 -0.134243 62.8103 -0.134243 63.3473 0.402728L74.3473 11.4027C74.8842 11.9397 74.8842 12.8103 74.3473 13.3473L63.3473 24.3473C62.8103 24.8842 61.9397 24.8842 61.4027 24.3473C60.8658 23.8103 60.8658 22.9397 61.4027 22.4027L71.4305 12.375L61.4027 2.34727C60.8658 1.8103 60.8658 0.939699 61.4027 0.402728Z" fill="#4A6DC7"/>
<path d="M19.248 6.456H11.808C10.992 8.112 10.008 9.696 8.904 10.944C8.592 11.304 8.208 11.496 7.848 11.496C7.536 11.496 7.2 11.376 6.888 11.088C6.552 10.8 6.408 10.488 6.408 10.152C6.408 9.816 6.552 9.48 6.816 9.216C8.712 7.152 10.224 4.224 10.92 1.536C11.064 0.959999 11.472 0.696 12.048 0.696C12.216 0.696 12.408 0.719999 12.6 0.767999C13.2 0.887999 13.56 1.272 13.56 1.824C13.56 1.944 13.536 2.088 13.488 2.256C13.32 2.856 13.104 3.456 12.864 4.08H20.256C21.744 4.08 22.704 4.848 22.704 6.096C22.704 6.48 22.608 6.912 22.416 7.392C21.816 8.808 20.76 10.632 19.728 11.88C19.392 12.288 18.984 12.552 18.552 12.552C18.312 12.552 18.048 12.48 17.808 12.312C17.4 12.048 17.16 11.64 17.16 11.208C17.16 10.968 17.256 10.704 17.448 10.488C18.216 9.6 19.056 8.448 19.608 7.32C19.728 7.08 19.776 6.912 19.776 6.768C19.776 6.552 19.608 6.456 19.248 6.456ZM3.72 2.16C4.776 3 6.048 4.2 6.936 5.328C7.152 5.592 7.248 5.88 7.248 6.192C7.248 6.528 7.104 6.888 6.816 7.2C6.528 7.488 6.144 7.656 5.784 7.656C5.424 7.656 5.064 7.512 4.824 7.2C3.96 6.144 2.712 4.92 1.68 4.032C1.464 3.84 1.344 3.552 1.344 3.24C1.344 2.904 1.488 2.568 1.824 2.28C2.136 1.992 2.496 1.848 2.856 1.848C3.144 1.848 3.456 1.944 3.72 2.16ZM7.728 12.696C8.088 12.984 8.28 13.344 8.28 13.728C8.28 14.016 8.184 14.304 7.968 14.568C6.576 16.392 4.872 18.096 3.168 19.344C2.88 19.536 2.568 19.656 2.256 19.656C1.848 19.656 1.464 19.464 1.176 19.104C0.936 18.792 0.816 18.48 0.816 18.168C0.816 17.808 0.984 17.472 1.32 17.208C2.88 16.032 4.608 14.568 5.88 12.888C6.144 12.528 6.48 12.384 6.84 12.384C7.152 12.384 7.464 12.504 7.728 12.696ZM13.872 14.328C12.96 18.264 10.296 21.216 6.744 22.848C6.504 22.968 6.264 23.016 6.048 23.016C5.544 23.016 5.088 22.752 4.848 22.224C4.728 21.984 4.68 21.744 4.68 21.528C4.68 21.048 4.944 20.64 5.496 20.376C7.92 19.296 10.08 17.28 11.208 15C12.048 13.296 12.432 11.448 12.432 8.712C12.432 8.016 12.936 7.68 13.752 7.68C14.592 7.68 15.072 8.016 15.072 8.712C15.096 11.376 15.48 13.104 16.488 14.976C17.688 17.208 20.04 19.032 22.584 20.184C23.04 20.4 23.304 20.832 23.304 21.336C23.304 21.6 23.232 21.864 23.112 22.128C22.824 22.68 22.344 22.92 21.864 22.92C21.624 22.92 21.384 22.872 21.192 22.776C17.52 21 14.76 18.144 13.872 14.328ZM33.432 4.224C34.56 4.224 35.544 4.656 36.552 6.024C39.264 9.672 42.84 13.368 46.512 16.608C46.872 16.944 47.088 17.424 47.088 17.952C47.088 18.36 46.944 18.768 46.656 19.128C46.368 19.536 45.936 19.704 45.528 19.704C45.12 19.704 44.712 19.56 44.376 19.248C40.992 16.248 37.392 12.168 34.848 8.616C34.224 7.752 33.912 7.536 33.48 7.536C33.024 7.536 32.76 7.704 32.112 8.736C30.888 10.728 29.136 13.296 27.744 14.952C27.408 15.384 26.976 15.576 26.544 15.576C26.16 15.576 25.752 15.408 25.392 15.096C25.032 14.76 24.864 14.328 24.864 13.92C24.864 13.536 25.008 13.128 25.248 12.864C26.832 11.088 28.68 8.664 30.168 6.312C31.176 4.728 32.184 4.224 33.432 4.224Z" fill="#4A6DC7"/>
</svg>
