<svg width="310" height="22" viewBox="0 0 310 22" fill="none" xmlns="http://www.w3.org/2000/svg">
<path d="M134.56 11.188C134.932 11.2 135.292 11.212 135.64 11.212C136.324 11.212 136.948 11.188 137.5 11.128C137.524 11.128 137.56 11.128 137.584 11.128C137.86 11.128 137.992 11.284 138.016 11.536C138.016 11.56 138.016 11.584 138.016 11.608C138.016 11.86 137.884 12.04 137.572 12.076C137.008 12.136 136.336 12.16 135.616 12.16C135.244 12.16 134.86 12.148 134.464 12.136C134.368 12.748 134.332 13.216 134.332 13.684C134.332 14.248 134.524 14.704 134.884 15.004C135.304 15.352 135.952 15.508 136.792 15.508C138.556 15.508 139.612 14.74 139.612 13.48C139.612 12.82 139.36 12.16 138.88 11.596C138.808 11.512 138.772 11.404 138.772 11.308C138.772 11.164 138.856 11.02 138.988 10.924C139.084 10.864 139.18 10.84 139.276 10.84C139.42 10.84 139.564 10.912 139.684 11.056C140.272 11.764 140.62 12.64 140.62 13.432C140.62 15.376 139.12 16.468 136.828 16.468C135.724 16.468 134.848 16.252 134.248 15.772C133.672 15.316 133.372 14.656 133.372 13.648C133.372 13.204 133.408 12.724 133.492 12.088C132.808 12.028 132.112 11.944 131.5 11.824C131.272 11.776 131.128 11.596 131.128 11.368C131.128 11.332 131.128 11.308 131.14 11.272C131.176 11.02 131.344 10.876 131.56 10.876C131.584 10.876 131.62 10.876 131.656 10.888C132.244 10.996 132.916 11.08 133.636 11.14C133.732 10.48 133.852 9.784 133.984 9.136C133.228 9.088 132.52 9.004 131.848 8.896C131.632 8.872 131.5 8.68 131.5 8.464C131.5 8.428 131.5 8.392 131.512 8.356C131.548 8.128 131.704 7.984 131.92 7.984C131.944 7.984 131.98 7.984 132.004 7.984C132.592 8.068 133.288 8.152 134.152 8.2C134.248 7.66 134.368 7.096 134.464 6.568C134.512 6.304 134.668 6.172 134.908 6.172C134.944 6.172 134.98 6.172 135.028 6.184C135.316 6.22 135.424 6.412 135.424 6.616C135.424 6.652 135.424 6.7 135.412 6.736C135.304 7.228 135.196 7.744 135.1 8.248C135.256 8.248 135.424 8.248 135.592 8.248C136.276 8.248 136.996 8.224 137.752 8.152C137.764 8.152 137.788 8.152 137.8 8.152C138.052 8.152 138.22 8.32 138.232 8.56C138.232 8.572 138.232 8.584 138.232 8.608C138.232 8.872 138.124 9.064 137.86 9.088C137.176 9.148 136.48 9.184 135.784 9.184C135.496 9.184 135.196 9.184 134.908 9.172C134.776 9.832 134.656 10.54 134.56 11.188ZM145.312 6.4C145.648 6.412 145.816 6.592 145.816 6.892C145.816 6.904 145.816 6.916 145.816 6.928C145.756 8.692 145.66 10.816 145.66 12.736C145.66 13.864 145.804 14.488 146.188 14.86C146.584 15.232 147.184 15.364 148.012 15.364C148.936 15.364 149.872 15.064 150.58 14.332C151.12 13.78 151.564 12.94 151.852 11.944C151.936 11.668 152.104 11.536 152.308 11.536C152.368 11.536 152.44 11.548 152.5 11.572C152.716 11.632 152.872 11.824 152.872 12.064C152.872 12.124 152.86 12.196 152.836 12.268C152.464 13.48 151.96 14.452 151.24 15.148C150.352 16.012 149.224 16.42 147.988 16.42C146.86 16.42 146.02 16.156 145.432 15.592C144.88 15.052 144.628 14.272 144.628 12.748C144.628 10.888 144.688 8.668 144.772 6.904C144.784 6.592 144.976 6.4 145.288 6.4C145.288 6.4 145.3 6.4 145.312 6.4ZM162.46 6.4C162.58 6.496 162.64 6.628 162.64 6.76C162.64 6.904 162.58 7.048 162.448 7.168C161.104 8.44 159.328 9.772 157.828 10.732C157.552 10.912 157.492 11.032 157.492 11.2C157.492 11.368 157.588 11.476 157.912 11.68C159.4 12.64 161.464 14.2 162.868 15.508C163.024 15.652 163.084 15.82 163.084 15.976C163.084 16.132 163.024 16.276 162.94 16.372C162.832 16.504 162.688 16.576 162.532 16.576C162.388 16.576 162.244 16.516 162.112 16.384C160.696 15.004 158.824 13.54 157.072 12.34C156.52 11.968 156.34 11.656 156.34 11.212C156.34 10.732 156.556 10.384 157.12 10.012C158.62 9.052 160.42 7.636 161.668 6.424C161.788 6.316 161.92 6.256 162.064 6.256C162.196 6.256 162.328 6.304 162.46 6.4ZM174.796 8.596C175.384 8.536 175.984 8.476 176.536 8.38C176.572 8.368 176.608 8.368 176.644 8.368C176.884 8.368 177.04 8.524 177.052 8.752C177.064 8.788 177.064 8.824 177.064 8.86C177.064 9.112 176.944 9.256 176.704 9.304C176.152 9.412 175.516 9.484 174.82 9.544C174.832 10.252 174.844 10.9 174.892 11.5C174.928 11.956 174.988 12.568 175.024 13.084C175.744 13.42 176.584 14.02 177.112 14.572C177.208 14.668 177.268 14.812 177.268 14.944C177.268 15.076 177.22 15.208 177.124 15.316C177.016 15.424 176.884 15.472 176.764 15.472C176.644 15.472 176.512 15.424 176.416 15.316C175.948 14.8 175.492 14.416 175.036 14.128C175.048 14.236 175.048 14.368 175.048 14.452C175.048 15.724 174.184 16.324 172.672 16.324C171.196 16.324 170.236 15.592 170.236 14.392C170.236 13.324 171.136 12.544 172.564 12.544C173.104 12.544 173.608 12.628 174.052 12.76C174.016 12.364 173.98 11.884 173.956 11.488C173.92 10.912 173.896 10.288 173.884 9.604C173.224 9.64 172.492 9.664 171.772 9.664C171.352 9.664 170.932 9.652 170.524 9.64C170.212 9.628 170.08 9.436 170.08 9.148C170.08 8.872 170.236 8.692 170.512 8.692C170.512 8.692 170.524 8.692 170.536 8.692C170.968 8.704 171.424 8.716 171.88 8.716C172.528 8.716 173.2 8.704 173.86 8.656C173.848 8.056 173.836 7.432 173.836 6.82C173.836 6.508 174.004 6.352 174.292 6.352C174.604 6.352 174.796 6.52 174.796 6.808C174.796 7.012 174.796 7.216 174.796 7.42C174.796 7.828 174.796 8.224 174.796 8.596ZM174.112 13.708C173.62 13.492 173.116 13.384 172.564 13.384C171.712 13.384 171.16 13.792 171.16 14.404C171.16 15.016 171.712 15.424 172.588 15.424C173.74 15.424 174.136 15.016 174.136 14.044C174.136 13.936 174.124 13.852 174.112 13.708ZM168.736 6.4C168.976 6.448 169.108 6.592 169.108 6.808C169.108 6.88 169.096 6.94 169.072 7.024C168.664 8.596 168.376 10.624 168.376 12.268C168.376 13.504 168.52 14.752 168.736 15.772C168.748 15.844 168.76 15.916 168.76 15.976C168.76 16.24 168.652 16.408 168.388 16.456C168.34 16.468 168.28 16.468 168.244 16.468C167.98 16.468 167.812 16.3 167.752 16.012C167.512 14.968 167.38 13.684 167.38 12.28C167.38 10.624 167.668 8.392 168.088 6.808C168.172 6.508 168.34 6.388 168.58 6.388C168.628 6.388 168.676 6.388 168.736 6.4Z" fill="#133B6A"/>
<line y1="10.75" x2="120" y2="10.75" stroke="#4A6DC7" stroke-width="0.5"/>
<line x1="190" y1="10.75" x2="310" y2="10.75" stroke="#4A6DC7" stroke-width="0.5"/>
</svg>
