<svg width="44" height="44" viewBox="0 0 44 44" fill="none" xmlns="http://www.w3.org/2000/svg">
<g clip-path="url(#clip0_2533_169)">
<path d="M33.6673 8.49939C36.6966 11.5283 38.4291 15.6166 38.4986 19.8998C38.568 24.183 36.9689 28.3254 34.0395 31.4509L33.6673 31.8359L25.8885 39.6129C24.9015 40.5993 23.5764 41.1736 22.1818 41.2196C20.7871 41.2655 19.4271 40.7797 18.3773 39.8604L18.1133 39.6129L10.3326 31.8341C7.23828 28.7397 5.49988 24.5428 5.49988 20.1667C5.49988 15.7906 7.23828 11.5938 10.3326 8.49939C13.427 5.40502 17.6239 3.66663 22 3.66663C26.3761 3.66663 30.5729 5.40502 33.6673 8.49939ZM22 14.6667C21.2777 14.6667 20.5625 14.809 19.8952 15.0854C19.2279 15.3618 18.6216 15.7669 18.1109 16.2776C17.6002 16.7884 17.195 17.3947 16.9186 18.062C16.6422 18.7293 16.5 19.4445 16.5 20.1667C16.5 20.889 16.6422 21.6042 16.9186 22.2715C17.195 22.9388 17.6002 23.5451 18.1109 24.0558C18.6216 24.5665 19.2279 24.9717 19.8952 25.2481C20.5625 25.5245 21.2777 25.6667 22 25.6667C23.4587 25.6667 24.8576 25.0873 25.8891 24.0558C26.9205 23.0244 27.5 21.6254 27.5 20.1667C27.5 18.708 26.9205 17.3091 25.8891 16.2776C24.8576 15.2462 23.4587 14.6667 22 14.6667Z" fill="black"/>
</g>
<defs>
<clipPath id="clip0_2533_169">
<rect width="44" height="44" fill="white"/>
</clipPath>
</defs>
</svg>
