<svg width="18" height="18" viewBox="0 0 18 18" fill="none" xmlns="http://www.w3.org/2000/svg">
<path fill-rule="evenodd" clip-rule="evenodd" d="M16.3633 11.5114V8.91223H17.9997V11.5055C18.0054 11.9246 17.929 12.3408 17.7748 12.7306C17.6196 13.1226 17.3888 13.4802 17.0954 13.783C16.8021 14.0857 16.452 14.3278 16.0651 14.4952C15.6782 14.6626 15.2621 14.7522 14.8406 14.7588L14.8278 14.7589H0.818481V13.1225H14.8207C15.0253 13.1186 15.2273 13.0747 15.4152 12.9934C15.6048 12.9113 15.7764 12.7927 15.9202 12.6443C16.064 12.4959 16.1772 12.3206 16.2532 12.1285C16.3293 11.9363 16.3667 11.7311 16.3634 11.5245L16.3633 11.5114Z" fill="#888888"/>
<path fill-rule="evenodd" clip-rule="evenodd" d="M0.268119 13.3353L3.59107 10.3144L4.69181 11.5252L2.03411 13.9413L4.69244 16.363L3.59045 17.5727L0.267492 14.5455C0.0971913 14.3904 0.000185903 14.1706 0.000305286 13.9402C0.000424669 13.7099 0.0976577 13.4902 0.268119 13.3353Z" fill="#888888"/>
<path fill-rule="evenodd" clip-rule="evenodd" d="M14.4095 0L17.7325 3.02716C17.9028 3.1823 17.9998 3.40205 17.9997 3.63242C17.9996 3.86279 17.9023 4.08244 17.7319 4.2374L14.4089 7.25827L13.3082 6.04746L15.9659 3.63137L13.3076 1.20967L14.4095 0Z" fill="#888888"/>
<path fill-rule="evenodd" clip-rule="evenodd" d="M3.15943 2.81388L3.17224 2.81378H17.1815V4.45015H3.17932C2.97466 4.4541 2.77272 4.49795 2.58483 4.57926C2.39518 4.66134 2.22356 4.77996 2.07976 4.92837C1.93596 5.07679 1.82281 5.25207 1.74677 5.44421C1.67072 5.63636 1.63328 5.8416 1.63656 6.04823L1.63667 6.06124V8.66045H0.000302817V6.06728C-0.00545511 5.64812 0.0709502 5.23187 0.225228 4.84205C0.380363 4.45006 0.611199 4.09247 0.904552 3.7897C1.1979 3.48694 1.54803 3.24493 1.93492 3.07749C2.32182 2.91006 2.73791 2.82049 3.15943 2.81388Z" fill="#888888"/>
</svg>
