<svg width="34" height="34" viewBox="0 0 34 34" fill="none" xmlns="http://www.w3.org/2000/svg">
<g clip-path="url(#clip0_259_158)">
<path d="M17.3944 23.9423C16.6015 24.1535 15.7844 24.2607 14.9639 24.261C12.8129 24.2609 10.7286 23.5149 9.06598 22.1502C7.40337 20.7856 6.26538 18.8867 5.84589 16.777C5.42641 14.6674 5.75138 12.4776 6.76545 10.5807C7.77952 8.68378 9.41994 7.19718 11.4072 6.37417C13.3945 5.55117 15.6056 5.44268 17.6639 6.06718C19.7222 6.69169 21.5002 8.01055 22.6951 9.79906C23.89 11.5876 24.4278 13.7351 24.2169 15.8756C24.0059 18.0162 23.0593 20.0174 21.5383 21.5383" stroke="white" stroke-width="2" stroke-linecap="round" stroke-linejoin="round"/>
<path d="M26.9173 26.9173L21.5383 21.5383" stroke="white" stroke-width="2" stroke-linecap="round" stroke-linejoin="round"/>
</g>
<defs>
<clipPath id="clip0_259_158">
<rect width="34" height="34" fill="white"/>
</clipPath>
</defs>
</svg>
