<svg width="27" height="24" viewBox="0 0 27 24" fill="none" xmlns="http://www.w3.org/2000/svg">
<path fill-rule="evenodd" clip-rule="evenodd" d="M14.314 0.0919105C14.6814 -0.0748105 15.1124 -0.011252 15.416 0.254436L26.3843 9.85167C26.6074 10.0469 26.7354 10.329 26.7354 10.6255C26.7354 10.922 26.6074 11.2041 26.3843 11.3994L15.416 20.9966C15.1124 21.2623 14.6814 21.3259 14.314 21.1591C13.9466 20.9924 13.7106 20.6262 13.7106 20.2228V15.857C12.6417 16.0283 11.5168 16.4348 10.3807 17.0048C8.87823 17.7586 7.41762 18.7672 6.12841 19.7844C4.84214 20.7994 3.74596 21.8074 2.97003 22.5492C2.69991 22.8075 2.47437 23.0278 2.288 23.2099C2.20397 23.292 2.1279 23.3664 2.0593 23.4329C1.95683 23.5322 1.85757 23.6273 1.78087 23.6942L1.77858 23.6962C1.75221 23.7193 1.6732 23.7883 1.57746 23.8462C1.54806 23.864 1.49221 23.8961 1.41816 23.9256C1.36575 23.9465 1.18958 24.0147 0.955021 23.9971C0.63884 23.9735 0.268552 23.789 0.0899694 23.3894C-0.0380184 23.1031 0.00436262 22.8506 0.0164885 22.783L0.0179684 22.7748C1.33441 15.7735 4.65466 7.5337 13.7106 5.65437V1.02829C13.7106 0.62482 13.9466 0.258631 14.314 0.0919105ZM15.7672 3.29437V6.51243C15.7672 7.019 15.3982 7.45011 14.8977 7.52836C7.86082 8.62858 4.47664 13.9956 2.7969 19.9057C3.40125 19.3638 4.0952 18.7691 4.8545 18.1699C6.20813 17.1018 7.78907 16.0042 9.45849 15.1666C11.1201 14.3329 12.9317 13.7252 14.7304 13.7104C15.0046 13.7081 15.2683 13.8155 15.463 14.0085C15.6577 14.2016 15.7672 14.4644 15.7672 14.7386V17.9567L24.1456 10.6255L15.7672 3.29437Z" fill="#888888"/>
</svg>
