<svg width="16" height="16" viewBox="0 0 16 16" fill="none" xmlns="http://www.w3.org/2000/svg">
<path fill-rule="evenodd" clip-rule="evenodd" d="M15.804 0.195966C15.9803 0.372245 16.044 0.631916 15.9692 0.869729L11.3583 15.5317C11.2744 15.7986 11.0332 15.9851 10.7538 15.9991C10.4744 16.0132 10.2157 15.852 10.1053 15.5949L7.08668 8.56244C6.94094 8.22291 7.09804 7.82952 7.43756 7.68378C7.77709 7.53804 8.17048 7.69514 8.31622 8.03467L10.6232 13.4091L14.3079 1.69207L2.54867 5.39012L5.10362 6.53664C5.44072 6.68792 5.59136 7.08382 5.44009 7.42092C5.28882 7.75802 4.89291 7.90866 4.55581 7.75739L0.395116 5.89029C0.141685 5.77656 -0.0151043 5.51806 0.00115363 5.24076C0.0174116 4.96346 0.203335 4.72505 0.468318 4.64172L15.1303 0.0308316C15.3681 -0.0439558 15.6278 0.0196878 15.804 0.195966Z" fill="#888888"/>
<path fill-rule="evenodd" clip-rule="evenodd" d="M9.82512 6.17488C10.0583 6.40804 10.0583 6.78608 9.82512 7.01925L8.01925 8.82512C7.78608 9.05829 7.40804 9.05829 7.17488 8.82512C6.94171 8.59196 6.94171 8.21392 7.17488 7.98075L8.98075 6.17488C9.21392 5.94171 9.59196 5.94171 9.82512 6.17488Z" fill="#888888"/>
</svg>
